PathFileType	4	(X/Y/Z)	C:/Users/opensim2020/Desktop/walking_exp_matlab/subject06_walking21_straight_02.trc	
DataRate	CameraRate	NumFrames	NumMarkers	Units	OrigDataRate	OrigDataStartFrame	OrigNumFrames	
100.00	100.00	8	44	mm	100.00	1390	172	
Frame#	Time	LFHD			RFHD			LBHD			RBHD			C7			T10			CLAV			STRN			RBAK			LSHO			LUPA			LELB			LFRM			LWRA			LWRB			LFIN			RSHO			RUPA			RELB			RFRM			RWRA			RWRB			RFIN			LASI			RASI			LPSI			RPSI			LTHI			LKNE			LTIB			LANK			LHEE			LTOE			RTHI			RKNE			RTIB			RANK			RHEE			RTOE			*39			*40			*41			*42			*43			
		X1	Y1	Z1	X2	Y2	Z2	X3	Y3	Z3	X4	Y4	Z4	X5	Y5	Z5	X6	Y6	Z6	X7	Y7	Z7	X8	Y8	Z8	X9	Y9	Z9	X10	Y10	Z10	X11	Y11	Z11	X12	Y12	Z12	X13	Y13	Z13	X14	Y14	Z14	X15	Y15	Z15	X16	Y16	Z16	X17	Y17	Z17	X18	Y18	Z18	X19	Y19	Z19	X20	Y20	Z20	X21	Y21	Z21	X22	Y22	Z22	X23	Y23	Z23	X24	Y24	Z24	X25	Y25	Z25	X26	Y26	Z26	X27	Y27	Z27	X28	Y28	Z28	X29	Y29	Z29	X30	Y30	Z30	X31	Y31	Z31	X32	Y32	Z32	X33	Y33	Z33	X34	Y34	Z34	X35	Y35	Z35	X36	Y36	Z36	X37	Y37	Z37	X38	Y38	Z38	X39	Y39	Z39	X40	Y40	Z40	X41	Y41	Z41	X42	Y42	Z42	X43	Y43	Z43	X44	Y44	Z44	

130	1.290	1506.09937	-250.20143	1641.67566	1374.46167	-242.79460	1628.34143	1514.06531	-116.78779	1586.84180	1384.94458	-111.34627	1579.04041	1451.32886	-113.50089	1426.57703	1436.48145	-86.30178	1096.10828	1452.72620	-225.94991	1352.52502	1456.39514	-271.55679	1179.60840	1360.78503	-48.39799	1255.47729	1613.99475	-161.64439	1377.24292	1676.80457	-118.63132	1177.89209	1682.45898	-84.39113	1070.17688	1708.63330	-66.03042	922.75989	1677.75330	-101.13270	792.81128	1705.74316	-36.39496	807.90015	1711.23669	-48.17237	717.82648	1290.80725	-184.02443	1387.40784	1189.51477	-166.74736	1194.10718	1170.96436	-195.55981	1078.78516	1160.70813	-268.29565	986.87640	1210.33057	-390.88861	910.96838	1165.53027	-351.85855	879.17279	1173.16040	-425.51718	840.61633	1545.31787	-271.87695	946.75934	1326.65125	-263.90363	945.98828	1526.49304	-111.53661	961.37524	1357.79858	-112.34070	967.71155	1617.79126	-284.97702	635.72565	1584.73218	-352.96255	489.47876	1582.06189	-398.19296	240.42325	1544.11206	-457.43448	76.75795	1496.77271	-426.26627	49.73544	1541.78418	-602.95294	91.64165	1290.03662	-164.40346	612.38751	1314.85620	-137.97409	488.00043	1327.31042	5.43986	254.90634	1379.91162	92.07947	91.65952	1425.04285	138.73747	79.17963	1380.24304	-48.49930	35.11558	1451.27954	-146.40099	1678.29871												 
131	1.300	1506.21680	-264.50861	1639.87744	1374.60864	-257.07388	1626.38757	1514.42151	-131.24336	1584.81250	1385.47473	-125.61751	1576.96777	1451.83740	-127.87737	1424.64197	1437.28601	-101.08318	1093.96936	1453.05518	-240.57689	1350.58020	1456.52185	-286.26041	1177.68079	1361.39917	-62.70702	1253.48083	1614.56152	-176.38358	1375.21008	1677.32751	-131.70914	1176.48901	1683.05017	-96.18855	1069.15430	1708.85168	-76.06079	921.69714	1677.47253	-109.06971	791.66046	1706.62769	-44.80397	807.80048	1710.83496	-55.17256	717.15515	1291.21875	-198.42732	1385.30688	1189.99719	-181.16553	1192.07446	1171.13562	-210.04750	1076.77173	1161.12512	-283.50031	985.56287	1210.75610	-406.74399	911.19873	1166.14807	-368.03436	878.81366	1173.64221	-441.98401	841.32886	1545.28906	-287.35889	944.90955	1326.69751	-278.32819	944.16663	1527.45703	-126.13492	959.43536	1359.10486	-126.79088	965.41626	1618.71350	-300.08948	633.73169	1585.39307	-367.43427	487.63345	1582.40320	-417.92920	239.60632	1544.13574	-481.15402	77.33850	1497.00000	-450.29935	49.47612	1541.24255	-626.41486	96.84354	1289.91040	-177.48753	610.74707	1314.77734	-150.82304	486.22351	1326.54260	-1.84934	256.20468	1378.40515	89.69749	95.61857	1423.15466	137.16942	84.80869	1380.39954	-48.63647	34.97642	1451.50305	-160.65338	1676.25964												 
132	1.310	1506.34766	-279.03839	1638.28149	1374.75159	-271.29733	1624.65637	1514.87390	-145.77507	1583.08337	1385.95911	-139.98654	1575.04443	1452.51062	-142.47549	1422.75012	1438.04712	-116.02602	1092.00806	1453.55396	-255.21951	1348.87305	1456.87659	-301.28210	1176.13147	1362.27563	-77.20864	1251.65991	1615.17810	-191.18028	1373.51245	1678.01465	-145.02689	1175.45532	1683.71240	-108.48266	1068.43689	1709.67346	-86.71965	921.40179	1677.18127	-117.34692	791.02740	1707.28711	-54.41706	807.62317	1710.56079	-63.30600	716.69189	1291.73547	-212.72928	1383.50293	1190.60449	-195.45096	1190.28943	1171.45996	-224.04794	1075.02612	1161.59021	-298.18188	984.32025	1211.17517	-421.85507	911.11072	1166.75452	-383.37128	878.25250	1174.15796	-457.82669	841.47955	1545.30566	-302.99460	943.40039	1326.75342	-292.92789	942.54126	1529.02734	-143.09439	957.56989	1360.39478	-141.59175	963.27429	1619.27881	-315.86551	632.34338	1585.97156	-382.32095	486.35672	1582.84448	-436.29697	238.79007	1544.12012	-501.77979	77.44726	1497.25537	-470.99136	48.67832	1540.70789	-646.44342	99.58118	1289.91504	-191.63789	609.03802	1314.60010	-164.45473	484.47543	1326.02539	-9.65732	257.98584	1376.76721	86.89436	100.27950	1421.08521	134.85904	91.14480	1380.45764	-48.94012	34.98831	1451.80151	-175.01559	1674.47876												 
133	1.320	1506.42944	-293.48279	1636.95605	1374.92529	-285.57162	1623.12292	1515.43616	-160.43611	1581.69299	1386.51514	-154.30077	1573.37793	1453.25024	-156.91199	1421.16003	1438.87659	-131.24062	1090.33960	1454.12756	-269.94583	1347.50549	1457.21875	-316.36850	1174.91077	1363.29993	-91.73803	1249.94507	1615.71533	-206.11188	1372.07068	1678.82935	-158.68822	1174.76123	1684.50647	-121.26909	1067.94434	1710.08960	-98.07787	920.88538	1677.29199	-127.27547	790.54248	1707.97351	-64.50365	807.68512	1710.65906	-72.61752	716.56122	1292.40747	-226.88289	1382.03992	1191.54102	-209.52115	1188.76343	1172.31250	-238.03145	1073.59668	1162.22961	-312.21844	983.16864	1211.53772	-436.33105	910.69507	1167.45825	-397.83423	877.41626	1174.51001	-472.63596	841.36310	1545.35413	-318.84811	942.24518	1326.81067	-307.57803	941.11023	1530.14417	-158.98283	956.11359	1361.59448	-156.63646	961.39209	1619.49561	-332.17334	631.57532	1586.37427	-398.00940	485.69336	1583.43750	-453.37289	237.87193	1544.32813	-518.43304	76.24593	1497.67188	-487.72491	47.39474	1539.87073	-662.94684	99.48556	1289.92383	-206.55331	607.47467	1314.37830	-179.24971	482.84656	1325.35901	-18.45655	260.21109	1375.17419	83.41479	105.76859	1419.29749	131.76105	98.69252	1380.46667	-49.17667	35.04383	1452.09778	-189.35992	1672.98047												 
134	1.330	1506.48901	-308.11224	1636.00610	1375.06213	-299.81677	1621.87817	1516.07239	-175.06694	1580.62610	1387.13367	-168.60410	1572.03442	1454.19287	-171.48901	1419.79871	1439.73193	-146.66232	1088.86926	1454.69128	-284.67020	1346.38525	1457.57385	-331.48975	1173.92261	1364.63281	-106.48801	1248.40234	1616.47510	-220.92938	1371.11719	1679.80310	-172.70403	1174.36951	1685.42383	-134.55621	1067.79822	1711.22070	-110.17274	921.12634	1677.64795	-138.03346	790.15204	1708.69128	-76.08420	807.75726	1710.61816	-82.79505	716.47186	1293.08057	-240.96251	1380.88354	1192.45728	-223.24506	1187.61133	1173.30579	-251.60902	1072.43042	1163.04480	-325.84140	982.06104	1212.01758	-449.86307	909.83356	1168.29883	-411.39948	876.24298	1174.98828	-485.93591	840.49591	1545.44604	-335.00772	941.45862	1326.93896	-322.75720	939.96204	1530.98145	-175.03296	955.07990	1362.70801	-172.11194	959.83295	1619.43018	-348.95139	631.26843	1586.55615	-414.64172	485.62659	1584.10486	-468.80869	236.54025	1544.70789	-532.31042	74.57852	1498.57581	-501.07120	45.55072	1538.85437	-676.34534	97.20633	1289.86853	-222.13249	605.97766	1314.08484	-195.11386	481.32071	1324.71814	-27.99482	262.99716	1373.84119	79.10123	112.07932	1417.74072	127.60466	107.19321	1380.51074	-49.56272	35.09468	1452.44238	-203.77580	1671.82019												 
135	1.340	1506.67078	-322.66934	1635.25378	1375.26050	-313.95102	1620.85815	1516.70715	-189.77872	1579.92310	1387.93701	-182.84898	1570.99792	1454.96619	-186.07286	1418.59680	1440.76160	-162.30881	1087.65125	1455.35791	-299.46533	1345.56409	1458.08691	-346.98242	1173.34595	1366.02063	-121.19532	1247.06360	1617.24292	-236.01100	1370.39734	1680.87976	-187.10677	1174.22888	1686.39856	-148.42993	1067.81433	1711.90881	-123.09663	921.02881	1678.48108	-149.99089	790.04199	1709.62390	-88.18433	808.07947	1710.67834	-93.87461	716.60870	1293.84497	-254.92029	1379.99121	1193.65234	-236.61203	1186.58838	1174.37610	-264.81866	1071.47742	1163.91821	-338.89444	980.94495	1212.37378	-463.01862	908.68799	1168.98682	-424.30963	874.98724	1175.06519	-499.27695	839.49426	1545.72388	-351.71832	940.97015	1327.24414	-338.23425	939.06293	1531.76453	-191.44849	954.35083	1363.79626	-187.96759	958.59021	1619.08154	-366.20627	631.26782	1586.61865	-431.87656	485.80493	1584.67334	-482.65393	234.91435	1544.98450	-543.09784	71.93327	1499.77002	-510.47418	43.98663	1537.94080	-687.12366	92.45272	1289.80969	-238.52214	604.70856	1313.58264	-212.05898	479.69852	1324.20398	-38.57883	266.30185	1372.97632	73.68211	119.35293	1416.84326	121.97524	116.99336	1380.69153	-50.04805	35.15219	1452.84863	-218.16411	1670.91333												 
136	1.350	1506.81628	-337.29050	1634.79053	1375.43384	-328.09183	1620.10229	1517.63867	-204.42166	1579.41626	1388.82397	-196.98460	1570.21301	1456.12451	-200.56094	1417.76379	1441.84412	-178.28619	1086.59009	1456.01489	-314.33221	1345.04016	1458.56201	-362.51974	1172.96606	1367.46313	-136.03780	1245.84375	1618.10815	-251.22768	1369.98486	1682.08899	-201.89406	1174.30884	1687.53003	-162.82072	1067.97327	1713.12988	-136.76727	921.31616	1679.64343	-162.83733	790.13910	1710.78796	-101.25007	808.61371	1711.22009	-106.24450	716.99115	1294.79272	-268.83112	1379.34924	1194.72632	-249.83629	1185.93311	1175.80981	-277.86551	1070.67749	1164.85498	-351.42642	979.90509	1212.74866	-475.55478	907.23645	1169.63721	-436.46210	873.54218	1175.26245	-511.48535	837.91296	1546.13855	-368.16269	940.74017	1327.75793	-353.97647	938.42108	1532.74609	-207.78294	954.03003	1364.73523	-203.99486	957.85883	1618.48938	-383.94925	631.61652	1587.20776	-448.78250	485.94620	1584.04285	-495.27313	233.56010	1544.20007	-551.22339	69.77332	1497.78857	-515.69714	46.83548	1538.75891	-696.23761	79.48730	1289.56982	-255.55147	603.42383	1312.69067	-230.78035	477.94318	1324.05688	-50.63791	270.27603	1372.82190	67.01936	127.58937	1416.90039	114.58798	128.01668	1381.04773	-50.66226	35.29517	1453.37512	-232.57576	1670.30798												 
137	1.360	1507.03210	-351.93564	1634.97888	1375.54871	-342.15103	1619.96558	1518.48157	-219.23828	1579.30615	1389.77173	-211.16818	1569.83569	1457.24536	-215.07770	1417.34363	1443.10425	-194.23439	1086.02930	1456.71936	-329.23523	1345.07788	1459.09070	-378.03098	1173.13135	1369.26978	-150.73888	1244.97192	1619.07373	-266.59848	1369.96448	1683.32458	-217.17776	1174.55225	1688.70898	-177.80077	1068.24512	1714.37061	-151.27751	921.73535	1680.95801	-177.13477	790.46173	1712.06653	-115.21987	809.17761	1712.06885	-119.89279	717.60376	1295.59143	-282.72797	1379.09814	1196.09973	-262.88675	1185.34094	1177.11621	-290.48904	1070.05322	1165.91174	-363.49973	978.77411	1213.10999	-487.67917	905.48431	1170.26550	-447.86652	871.86639	1175.42896	-522.83813	835.83917	1546.36987	-384.01352	940.80359	1328.62329	-369.86499	938.04498	1533.68262	-223.95392	954.34973	1365.68994	-220.25516	957.44983	1618.14709	-401.59042	632.65192	1588.78113	-465.21973	486.51480	1583.19629	-507.48538	233.60388	1544.91907	-555.18634	69.25510	1498.17273	-518.31555	49.56330	1538.16272	-701.17175	66.01492	1289.32544	-273.53616	602.00952	1311.48389	-250.73228	476.05441	1324.25488	-64.43842	274.61563	1373.15698	58.43161	136.74213	1417.65637	104.81211	140.17108	1381.51843	-52.22151	35.85726	1453.92163	-246.92007	1670.12964												 
